<svg xmlns="http://www.w3.org/2000/svg" width="695" height="148" viewBox="0 0 695 148" fill="none"><path d="M0 53.94C3.24 52.32 7.41 50.83 12.52 49.46C17.63 48.09 22.98 47 28.59 46.19C34.19 45.38 39.36 44.97 44.1 44.97C52.19 44.97 59.45 46.25 65.86 48.8C72.27 51.35 77.28 55 80.9 59.73C88.62 49.89 99.7 44.97 114.15 44.97C122.12 44.97 129.06 46.46 134.98 49.45C140.89 52.44 145.53 56.64 148.9 62.06C152.26 67.48 153.94 73.8 153.94 81.02V147.16H127.79V88.3C127.79 81.33 126.23 75.97 123.12 72.23C120.01 68.49 115.46 66.62 109.48 66.62C103.13 66.62 98.27 68.74 94.91 72.97C91.55 77.21 89.87 83.25 89.87 91.09V147.15H63.72V89.79C63.72 81.57 62.16 75.66 59.05 72.04C55.94 68.43 50.7 66.62 43.36 66.62C40.25 66.62 37.13 66.93 34.02 67.55C30.91 68.17 28.29 69.04 26.17 70.17V147.15H0.0199966V53.92L0 53.94Z" fill="#008196"></path><path d="M217.27 146.86C206.93 146.86 197.87 144.87 190.09 140.88C182.31 136.9 176.23 131.17 171.88 123.69C167.52 116.22 165.34 107.38 165.34 97.16C165.34 86.94 167.42 77.42 171.6 69.7C175.77 61.98 181.66 55.97 189.25 51.67C196.85 47.37 205.75 45.22 215.96 45.22C224.55 45.22 232.12 46.71 238.66 49.7C245.2 52.69 250.3 56.92 253.98 62.4C257.65 67.88 259.49 74.42 259.49 82.02C259.49 90.24 257.06 96.5 252.2 100.8C247.34 105.1 239.81 107.24 229.6 107.24H192.24C193.48 112.72 196.47 117.14 201.21 120.5C205.94 123.86 212.35 125.55 220.45 125.55C223.19 125.55 226.3 125.36 229.79 124.99C233.28 124.62 236.58 124.09 239.69 123.4C242.8 122.72 245.17 122 246.79 121.25L253.89 139.74C252.27 140.86 249.44 141.95 245.39 143.01C241.34 144.07 236.8 144.97 231.75 145.72C226.71 146.47 221.88 146.84 217.27 146.84V146.86ZM198.02 70.74C193.66 75.78 191.48 82.17 191.48 89.89H224.92C228.66 89.89 231.24 88.9 232.67 86.9C234.1 84.91 234.82 82.54 234.82 79.8C234.82 74.69 232.95 70.65 229.22 67.66C225.48 64.67 220.87 63.18 215.4 63.18C208.18 63.18 202.38 65.7 198.03 70.75L198.02 70.74Z" fill="#008196"></path><path d="M369.71 144.25C368.34 144.5 366.1 144.78 362.98 145.09C359.87 145.4 356.38 145.68 352.52 145.93C348.66 146.18 344.83 146.4 341.03 146.58C337.23 146.77 334.02 146.86 331.41 146.86C318.58 146.86 307.75 144.65 298.9 140.23C290.06 135.81 283.36 129.61 278.82 121.64C274.27 113.67 272 104.33 272 93.62C272 83.66 273.96 75.16 277.88 68.12C281.8 61.08 287.13 55.7 293.85 51.96C300.58 48.22 307.98 46.36 316.08 46.36C322.18 46.36 327.54 47.3899 332.15 49.4399C336.76 51.4899 340.56 54.3899 343.55 58.1299V17.78C343.55 14.29 344.73 11.55 347.1 9.55995C349.46 7.56995 352.83 6.56995 357.19 6.56995C361.55 6.56995 365.85 7.31995 369.71 8.80995V144.25ZM337.67 74.1899C333.75 69.7099 328.48 67.46 321.88 67.46C314.66 67.46 309.02 70.01 304.97 75.12C300.92 80.23 298.9 87.33 298.9 96.42C298.9 106.13 301.48 113.61 306.65 118.84C311.82 124.07 319.57 126.69 329.91 126.69C332.77 126.69 335.58 126.53 338.32 126.22C341.06 125.91 342.8 125.5 343.55 125V92.3099C343.55 84.7199 341.59 78.6699 337.67 74.1899Z" fill="#008196"></path><path d="M434.09 146.86C423.75 146.86 414.69 144.87 406.91 140.88C399.13 136.9 393.05 131.17 388.7 123.69C384.34 116.22 382.16 107.38 382.16 97.16C382.16 86.94 384.24 77.42 388.42 69.7C392.59 61.98 398.48 55.97 406.07 51.67C413.67 47.37 422.57 45.22 432.78 45.22C441.37 45.22 448.94 46.71 455.48 49.7C462.02 52.69 467.12 56.92 470.8 62.4C474.47 67.88 476.31 74.42 476.31 82.02C476.31 90.24 473.88 96.5 469.02 100.8C464.16 105.1 456.63 107.24 446.42 107.24H409.06C410.3 112.72 413.29 117.14 418.03 120.5C422.76 123.86 429.17 125.55 437.27 125.55C440.01 125.55 443.12 125.36 446.61 124.99C450.1 124.62 453.4 124.09 456.51 123.4C459.62 122.72 461.99 122 463.61 121.25L470.71 139.74C469.09 140.86 466.26 141.95 462.21 143.01C458.16 144.07 453.62 144.97 448.57 145.72C443.53 146.47 438.7 146.84 434.09 146.84V146.86ZM414.85 70.74C410.49 75.78 408.31 82.17 408.31 89.89H441.75C445.49 89.89 448.07 88.9 449.5 86.9C450.93 84.91 451.65 82.54 451.65 79.8C451.65 74.69 449.78 70.65 446.05 67.66C442.31 64.67 437.7 63.18 432.23 63.18C425.01 63.18 419.21 65.7 414.86 70.75L414.85 70.74Z" fill="#008196"></path><path d="M602.29 54.0199C605.53 52.3999 609.76 50.9099 614.99 49.5399C620.22 48.1699 625.73 47.0799 631.52 46.2699C637.31 45.4599 642.64 45.0499 647.49 45.0499C657.08 45.0499 665.36 46.6699 672.34 49.9099C679.31 53.1499 684.73 57.7299 688.59 63.6399C692.45 69.5599 694.38 76.5599 694.38 84.6599V146.67H668.23V89.8899C668.23 81.9199 666.52 76.0699 663.09 72.3299C659.66 68.5899 654.22 66.7199 646.74 66.7199C643.38 66.7199 639.95 67.0599 636.47 67.7499C632.98 68.4399 630.31 69.2799 628.44 70.2699V146.66H602.29V54.0199Z" fill="#008196"></path><path d="M539.85 44.59C511.68 44.59 488.85 67.42 488.85 95.59C488.85 123.76 511.68 146.59 539.85 146.59C568.02 146.59 590.85 123.76 590.85 95.59C590.85 67.42 568.02 44.59 539.85 44.59ZM539.85 122.63C524.92 122.63 512.81 110.52 512.81 95.59C512.81 80.66 524.92 68.55 539.85 68.55C554.78 68.55 566.89 80.66 566.89 95.59C566.89 110.52 554.78 122.63 539.85 122.63Z" fill="#58B54C"></path><path d="M533.79 31.96C545.97 30.72 557.62 32.56 568.58 37.3C574.21 39.74 579.52 42.78 584.43 46.68H585.02L540.01 0L495 46.68H495.55C507.21 38.39 519.93 33.36 533.79 31.96Z" fill="#58B54C"></path></svg>