<svg xmlns="http://www.w3.org/2000/svg" viewBox="0 0 739.25 186.26"><defs><style>      .st0 {        fill: #fff;      }      .st1 {        fill: #008196;      }      .st2 {        fill: #58b54c;      }    </style></defs><g id="Layer_2"><rect class="st1" x="629.62" y="355.4" width="841.89" height="595.28"></rect></g><g id="Layer_1"><g><g><path class="st0" d="M17.07,72.72c3.24-1.62,7.41-3.11,12.52-4.48,5.11-1.37,10.46-2.46,16.07-3.27,5.6-.81,10.77-1.22,15.51-1.22,8.09,0,15.35,1.28,21.76,3.83,6.41,2.55,11.42,6.2,15.04,10.93,7.72-9.84,18.8-14.76,33.25-14.76,7.97,0,14.91,1.49,20.83,4.48,5.91,2.99,10.55,7.19,13.92,12.61,3.36,5.42,5.04,11.74,5.04,18.96v66.14h-26.15v-58.86c0-6.97-1.56-12.33-4.67-16.07-3.11-3.74-7.66-5.61-13.64-5.61-6.35,0-11.21,2.12-14.57,6.35-3.36,4.24-5.04,10.28-5.04,18.12v56.06h-26.15v-57.36c0-8.22-1.56-14.13-4.67-17.75-3.11-3.61-8.35-5.42-15.69-5.42-3.11,0-6.23.31-9.34.93-3.11.62-5.73,1.49-7.85,2.62v76.98h-26.15v-93.23Z"></path><path class="st0" d="M234.34,165.64c-10.34,0-19.4-1.99-27.18-5.98-7.78-3.98-13.86-9.71-18.21-17.19-4.36-7.47-6.54-16.31-6.54-26.53s2.08-19.74,6.26-27.46c4.17-7.72,10.06-13.73,17.65-18.03,7.6-4.3,16.5-6.45,26.71-6.45,8.59,0,16.16,1.49,22.7,4.48,6.54,2.99,11.64,7.22,15.32,12.7,3.67,5.48,5.51,12.02,5.51,19.62,0,8.22-2.43,14.48-7.29,18.78-4.86,4.3-12.39,6.44-22.6,6.44h-37.36c1.24,5.48,4.23,9.9,8.97,13.26,4.73,3.36,11.14,5.05,19.24,5.05,2.74,0,5.85-.19,9.34-.56,3.49-.37,6.79-.9,9.9-1.59,3.11-.68,5.48-1.4,7.1-2.15l7.1,18.49c-1.62,1.12-4.45,2.21-8.5,3.27-4.05,1.06-8.59,1.96-13.64,2.71-5.04.75-9.87,1.12-14.48,1.12ZM215.09,89.51c-4.36,5.04-6.54,11.43-6.54,19.15h33.44c3.74,0,6.32-.99,7.75-2.99,1.43-1.99,2.15-4.36,2.15-7.1,0-5.11-1.87-9.15-5.6-12.14-3.74-2.99-8.35-4.48-13.82-4.48-7.22,0-13.02,2.52-17.37,7.57Z"></path><path class="st0" d="M386.78,163.02c-1.37.25-3.61.53-6.73.84-3.11.31-6.6.59-10.46.84-3.86.25-7.69.47-11.49.65-3.8.19-7.01.28-9.62.28-12.83,0-23.66-2.21-32.51-6.63-8.84-4.42-15.54-10.62-20.08-18.59-4.55-7.97-6.82-17.31-6.82-28.02,0-9.96,1.96-18.46,5.88-25.5,3.92-7.04,9.25-12.42,15.97-16.16,6.73-3.74,14.13-5.6,22.23-5.6,6.1,0,11.46,1.03,16.07,3.08,4.61,2.05,8.41,4.95,11.4,8.69v-40.35c0-3.49,1.18-6.23,3.55-8.22,2.36-1.99,5.73-2.99,10.09-2.99s8.66.75,12.52,2.24v135.44ZM354.74,92.96c-3.92-4.48-9.19-6.73-15.79-6.73-7.22,0-12.86,2.55-16.91,7.66-4.05,5.11-6.07,12.21-6.07,21.3,0,9.71,2.58,17.19,7.75,22.42,5.17,5.23,12.92,7.85,23.26,7.85,2.86,0,5.67-.16,8.41-.47,2.74-.31,4.48-.72,5.23-1.22v-32.69c0-7.59-1.96-13.64-5.88-18.12Z"></path><path class="st0" d="M451.16,165.64c-10.34,0-19.4-1.99-27.18-5.98-7.78-3.98-13.86-9.71-18.21-17.19-4.36-7.47-6.54-16.31-6.54-26.53s2.08-19.74,6.26-27.46c4.17-7.72,10.06-13.73,17.65-18.03,7.6-4.3,16.5-6.45,26.71-6.45,8.59,0,16.16,1.49,22.7,4.48,6.54,2.99,11.64,7.22,15.32,12.7,3.67,5.48,5.51,12.02,5.51,19.62,0,8.22-2.43,14.48-7.29,18.78-4.86,4.3-12.39,6.44-22.6,6.44h-37.36c1.24,5.48,4.23,9.9,8.97,13.26,4.73,3.36,11.14,5.05,19.24,5.05,2.74,0,5.85-.19,9.34-.56,3.49-.37,6.79-.9,9.9-1.59,3.11-.68,5.48-1.4,7.1-2.15l7.1,18.49c-1.62,1.12-4.45,2.21-8.5,3.27-4.05,1.06-8.59,1.96-13.64,2.71-5.04.75-9.87,1.12-14.48,1.12ZM431.92,89.51c-4.36,5.04-6.54,11.43-6.54,19.15h33.44c3.74,0,6.32-.99,7.75-2.99,1.43-1.99,2.15-4.36,2.15-7.1,0-5.11-1.87-9.15-5.6-12.14-3.74-2.99-8.35-4.48-13.82-4.48-7.22,0-13.02,2.52-17.37,7.57Z"></path><path class="st0" d="M619.36,72.79c3.24-1.62,7.47-3.11,12.7-4.48,5.23-1.37,10.74-2.46,16.53-3.27,5.79-.81,11.12-1.22,15.97-1.22,9.59,0,17.87,1.62,24.85,4.86,6.97,3.24,12.39,7.82,16.25,13.73,3.86,5.92,5.79,12.92,5.79,21.02v62.01h-26.15v-56.78c0-7.97-1.71-13.82-5.14-17.56-3.43-3.74-8.87-5.61-16.35-5.61-3.36,0-6.79.34-10.27,1.03-3.49.69-6.16,1.53-8.03,2.52v76.39h-26.15v-92.64Z"></path></g><g><path class="st2" d="M556.92,63.37c-28.17,0-51,22.83-51,51s22.83,51,51,51,51-22.83,51-51-22.83-51-51-51ZM556.92,141.41c-14.93,0-27.04-12.11-27.04-27.04s12.11-27.04,27.04-27.04,27.04,12.11,27.04,27.04-12.11,27.04-27.04,27.04Z"></path><path class="st2" d="M550.86,50.73c12.18-1.24,23.83.6,34.79,5.34,5.63,2.44,10.94,5.48,15.85,9.38h.59l-45.01-46.68-45.01,46.68h.55c11.66-8.29,24.38-13.32,38.24-14.72Z"></path></g></g></g></svg>